<svg xmlns="http://www.w3.org/2000/svg" height="48" viewBox="0 -960 960 960" width="48"><path d="M295.961-161.154q-22.204 0-38.506-16.301-16.301-16.302-16.301-38.506V-733.5h-40.116v-29.898h153.347v-26.218h251.346v25.923h153.346v30.193h-40.115v517.717q0 22.233-16.199 38.431-16.198 16.198-38.609 16.198H295.961ZM688.769-733.5H271.346v517.539q0 10.769 7.308 17.692 7.307 6.923 17.307 6.923h368.193q9.231 0 16.923-7.692 7.692-7.693 7.692-16.923V-733.5ZM396.038-274.538h30.193v-377.654h-30.193v377.654Zm137.847 0h30.192v-377.654h-30.192v377.654ZM271.346-733.5v542.154V-733.5Z"/></svg>