<svg xmlns="http://www.w3.org/2000/svg" height="48" viewBox="0 -960 960 960" width="48"><path d="M355.42-191.231q-17.266 0-30.728-13.656-13.461-13.656-13.461-30.922 0-17.267 13.656-30.498 13.656-13.232 30.922-13.232 17.267 0 30.498 13.427 13.232 13.426 13.232 30.692t-13.427 30.728q-13.426 13.461-30.692 13.461Zm249.231 0q-17.266 0-30.728-13.656-13.462-13.656-13.462-30.922 0-17.267 13.657-30.498 13.656-13.232 30.922-13.232t30.498 13.427q13.231 13.426 13.231 30.692t-13.426 30.728q-13.426 13.461-30.692 13.461ZM355.42-435.846q-17.266 0-30.728-13.656-13.461-13.657-13.461-30.923t13.656-30.497q13.656-13.232 30.922-13.232 17.267 0 30.498 13.426 13.232 13.426 13.232 30.693 0 17.266-13.427 30.727-13.426 13.462-30.692 13.462Zm249.231 0q-17.266 0-30.728-13.656-13.462-13.657-13.462-30.923t13.657-30.497q13.656-13.232 30.922-13.232t30.498 13.426q13.231 13.426 13.231 30.693 0 17.266-13.426 30.727-13.426 13.462-30.692 13.462ZM355.42-680.461q-17.266 0-30.728-13.657-13.461-13.656-13.461-30.922t13.656-30.498q13.656-13.231 30.922-13.231 17.267 0 30.498 13.426 13.232 13.426 13.232 30.692t-13.427 30.728q-13.426 13.462-30.692 13.462Zm249.231 0q-17.266 0-30.728-13.657-13.462-13.656-13.462-30.922t13.657-30.498q13.656-13.231 30.922-13.231t30.498 13.426q13.231 13.426 13.231 30.692t-13.426 30.728q-13.426 13.462-30.692 13.462Z"/></svg>